<svg xmlns="http://www.w3.org/2000/svg" xmlns:xlink="http://www.w3.org/1999/xlink" width="1080" zoomAndPan="magnify" viewBox="0 0 810 809.999993" height="1080" preserveAspectRatio="xMidYMid meet" version="1.0"><defs><clipPath id="4e9ba1eba1"><path d="M 4.5 4.5 L 805.5 4.5 L 805.5 805.5 L 4.5 805.5 Z M 4.5 4.5 " clip-rule="nonzero"/></clipPath><clipPath id="678d4cdd5a"><path d="M 405 4.5 C 183.808594 4.5 4.5 183.808594 4.5 405 C 4.5 626.191406 183.808594 805.5 405 805.5 C 626.191406 805.5 805.5 626.191406 805.5 405 C 805.5 183.808594 626.191406 4.5 405 4.5 Z M 405 4.5 " clip-rule="nonzero"/></clipPath><clipPath id="7e974368bf"><path d="M 184 74.5 L 626 74.5 L 626 735.25 L 184 735.25 Z M 184 74.5 " clip-rule="nonzero"/></clipPath></defs><g clip-path="url(#4e9ba1eba1)"><g clip-path="url(#678d4cdd5a)"><path fill="#20272e" d="M 4.5 4.5 L 805.5 4.5 L 805.5 805.5 L 4.5 805.5 Z M 4.5 4.5 " fill-opacity="1" fill-rule="nonzero"/></g></g><g clip-path="url(#7e974368bf)"><path fill="#b387fa" d="M 625.328125 515.164062 C 625.328125 636.648438 526.484375 735.496094 404.996094 735.496094 C 283.511719 735.496094 184.664062 636.648438 184.664062 515.164062 L 184.664062 457.050781 C 184.664062 435.265625 210.996094 424.359375 226.417969 439.753906 C 236.277344 449.449219 249.386719 462.367188 256.464844 473.714844 C 263.132812 481.039062 267.316406 490.707031 267.316406 501.394531 L 267.316406 515.164062 C 267.316406 591.097656 329.09375 652.871094 405.027344 652.871094 C 480.957031 652.871094 542.734375 591.097656 542.734375 515.164062 C 542.734375 464.984375 515.382812 418.714844 471.34375 394.449219 C 403.953125 357.296875 363.714844 292.847656 363.714844 221.984375 L 363.714844 198.132812 C 347.078125 185.574219 336.171875 165.828125 336.171875 143.355469 C 336.171875 105.320312 366.992188 74.5 405.027344 74.5 C 443.058594 74.5 473.878906 105.320312 473.878906 143.355469 C 473.878906 165.800781 462.972656 185.546875 446.335938 198.132812 L 446.335938 221.984375 C 446.335938 262.25 470.601562 299.679688 511.226562 322.097656 C 581.621094 360.902344 625.359375 434.878906 625.359375 515.164062 Z M 625.328125 515.164062 " fill-opacity="1" fill-rule="nonzero"/></g></svg>